<svg width="25" height="24" viewBox="0 0 25 24" fill="none"
    xmlns="http://www.w3.org/2000/svg">
    <path fill-rule="evenodd" clip-rule="evenodd" d="M12.4659 2C7.45278 2 3.375 6.03793 3.375 10.9998L3.42652 18.9997C3.67399 20.6907 5.13359 21.9996 6.91035 21.9996C8.09621 21.9996 9.0053 21.5826 9.60934 20.8257C9.98499 21.199 10.4316 21.4951 10.9235 21.6966C11.4153 21.8982 11.9426 22.0013 12.4749 22C13.0072 21.9987 13.534 21.893 14.0248 21.689C14.5157 21.4851 14.9608 21.1869 15.3346 20.8117C15.9417 21.5736 16.8538 21.9996 18.0215 21.9996C19.971 21.9996 21.5568 20.4297 21.5568 18.4997V10.9998C21.5568 6.03793 17.479 2 12.4659 2ZM9.29839 12.9661C10.5257 12.9661 11.5206 11.9712 11.5206 10.7439C11.5206 9.51662 10.5257 8.5217 9.29839 8.5217C8.07109 8.5217 7.07617 9.51662 7.07617 10.7439C7.07617 11.9712 8.07109 12.9661 9.29839 12.9661ZM18.1871 10.7439C18.1871 11.9712 17.1922 12.9661 15.9649 12.9661C14.7376 12.9661 13.7427 11.9712 13.7427 10.7439C13.7427 9.51662 14.7376 8.5217 15.9649 8.5217C17.1922 8.5217 18.1871 9.51662 18.1871 10.7439Z" fill="#5B6975"/>
</svg>
