<svg width="36" height="36" viewBox="0 0 36 36" fill="none"
    xmlns="http://www.w3.org/2000/svg">
    <path d="M24.75 18C21.0225 18 18 14.9775 18 11.25C18 7.599 21.105 4.497 24.7545 4.5C28.4805 4.503 31.5 7.524 31.5 11.25C31.5 14.9775 28.479 18 24.75 18Z" stroke="#EB5757" stroke-width="1.5" stroke-linecap="round" stroke-linejoin="round"/>
    <path d="M26.5395 9.46045L22.9605 13.0394" stroke="#EB5757" stroke-width="1.5" stroke-linecap="round" stroke-linejoin="round"/>
    <path d="M26.541 13.0409L22.962 9.46191" stroke="#EB5757" stroke-width="1.5" stroke-linecap="round" stroke-linejoin="round"/>
    <path d="M18.432 9H6.834C5.5455 9 4.5 10.0455 4.5 11.334V14.8545C4.5 15.5775 4.836 16.2585 5.4075 16.7025L10.797 20.8605V29.1645C10.797 30.8985 12.621 32.028 14.1735 31.251L17.9115 29.382C18.702 28.9875 19.2015 28.1775 19.2015 27.2955V20.8605" stroke="#EB5757" stroke-width="1.5" stroke-linecap="round" stroke-linejoin="round"/>
    <path d="M19.2 20.8652L23.16 17.8052" stroke="#EB5757" stroke-width="1.5" stroke-linecap="round" stroke-linejoin="round"/>
</svg>
